<?xml version="1.0" standalone="no"?>
<svg version="1.0" xmlns="http://www.w3.org/2000/svg"
 width="100.000000pt" height="90.000000pt" viewBox="0 0 125 120"
 preserveAspectRatio="xMidYMid meet">
<metadata>
Created by potrace 1.10, written by Peter Selinger 2001-2011
</metadata>
<g transform="translate(-160.000000,300.000000) scale(0.10000,-0.100000)"
fill="#1d7b3d" stroke="none">
<path d="M1830 2703 l0 -148 -69 -57 c-91 -75 -151 -165 -151 -225 0 -24 5
-53 11 -65 33 -61 195 -77 355 -33 174 46 386 154 559 285 68 51 82 58 91 45
15 -21 21 -19 28 10 6 25 37 59 67 76 14 7 21 -2 39 -51 12 -33 26 -58 30 -55
4 2 9 40 12 84 4 77 6 82 46 125 23 25 42 52 42 61 0 24 -40 18 -83 -12 -38
-26 -39 -26 -100 -13 -123 26 -117 28 -64 -27 l47 -49 -33 -32 c-26 -26 -41
-32 -75 -32 -49 0 -52 -6 -15 -36 l26 -21 -54 -40 c-236 -174 -533 -293 -730
-293 -142 0 -187 51 -139 158 19 41 134 172 152 172 4 0 8 -70 8 -155 0 -121
3 -155 13 -155 32 0 139 23 212 46 107 33 298 128 414 204 l93 62 -28 24 -29
24 23 19 c12 11 27 21 32 23 6 2 6 16 0 40 -15 53 -89 131 -152 159 -51 23
-64 24 -315 27 l-263 3 0 -148z m412 -29 c38 -8 85 -64 93 -112 9 -55 -10
-116 -45 -146 -30 -24 -57 -31 -167 -39 l-53 -4 0 158 0 158 73 -5 c39 -2 84
-7 99 -10z"/>
<path d="M2455 2379 c-55 -38 -149 -94 -210 -125 l-110 -56 90 5 c175 9 298
90 336 219 4 15 5 28 1 27 -4 0 -52 -32 -107 -70z"/>
<path d="M1965 2150 c-38 -10 -85 -19 -102 -19 l-33 -1 0 -130 0 -130 120 0
120 0 0 89 c0 120 -10 211 -24 210 -6 -1 -42 -9 -81 -19z"/>
</g>
</svg>
